# Blender v2.76 (sub 0) OBJ File: 'test_3d.blend'
# www.blender.org
mtllib test_3d.mtl
o Cube
v 1.000000 -1.000000 -1.000000
v 1.000000 -1.000000 1.000000
v -1.000000 -1.000000 1.000000
v -1.000000 -1.000000 -1.000000
v 1.000000 1.000000 -0.999999
v 0.999999 1.000000 1.000001
v -1.000000 1.000000 1.000000
v -1.000000 1.000000 -1.000000
v 1.000000 -0.586269 -0.586269
v 1.000000 -0.586269 0.586269
v 1.000000 0.586269 -0.586269
v 1.000000 0.586269 0.586270
v 1.816244 -0.586269 -0.586269
v 1.816244 -0.586269 0.586270
v 1.816244 0.586269 -0.586269
v 1.816243 0.586269 0.586270
vt 0.000000 0.666667
vt 0.333333 0.666667
vt 0.333333 1.000000
vt 0.000100 0.999900
vt 0.000100 0.000100
vt 0.999899 0.000100
vt 0.794358 0.292359
vt 0.770311 0.268311
vt 0.770311 0.200160
vt 0.450424 0.910591
vt 0.018046 0.910591
vt 0.018046 0.478213
vt 0.000000 0.333333
vt 0.261948 0.850412
vt 0.261948 0.729833
vt 0.382528 0.729833
vt 0.802707 0.528756
vt 0.666667 0.528756
vt 0.666667 0.333333
vt 0.678112 0.292359
vt 0.702159 0.268311
vt 0.678112 0.176112
vt 0.702159 0.200160
vt 0.794358 0.176112
vt 0.467758 0.908238
vt 0.054850 0.908238
vt 0.054850 0.495330
vt 0.802707 0.724180
vt 0.664797 0.666667
vt 0.664797 0.862090
vt 0.528757 0.862090
vt 0.802707 0.919603
vt 0.666667 0.919603
vt 0.000000 1.000000
vt 0.999900 0.999899
vt 0.450425 0.478213
vt 0.333333 0.333333
vt 0.382528 0.850412
vt 0.802707 0.333333
vt 0.467758 0.495330
vt 0.666667 0.724180
vt 0.528757 0.666667
vn 0.000000 -1.000000 -0.000000
vn 0.000000 1.000000 0.000000
vn 1.000000 -0.000000 0.000000
vn -0.000000 0.000000 1.000000
vn -1.000000 -0.000000 -0.000000
vn 0.000000 0.000000 -1.000000
usemtl Material
s off
f 1/1/1 2/2/1 3/3/1
f 8/4/2 7/5/2 6/6/2
f 5/7/3 11/8/3 9/9/3
f 6/10/4 7/11/4 3/12/4
f 3/2/5 7/1/5 8/13/5
f 1/14/6 4/15/6 8/16/6
f 11/17/6 15/18/6 13/19/6
f 5/7/3 6/20/3 12/21/3
f 2/22/3 10/23/3 12/21/3
f 2/22/3 1/24/3 9/9/3
f 15/25/3 16/26/3 14/27/3
f 10/18/4 14/17/4 16/28/4
f 11/29/2 12/30/2 16/31/2
f 10/28/1 9/32/1 13/33/1
f 4/34/1 1/1/1 3/3/1
f 5/35/2 8/4/2 6/6/2
f 1/24/3 5/7/3 9/9/3
f 2/36/4 6/10/4 3/12/4
f 4/37/5 3/2/5 8/13/5
f 5/38/6 1/14/6 8/16/6
f 9/39/6 11/17/6 13/19/6
f 11/8/3 5/7/3 12/21/3
f 6/20/3 2/22/3 12/21/3
f 10/23/3 2/22/3 9/9/3
f 13/40/3 15/25/3 14/27/3
f 12/41/4 10/18/4 16/28/4
f 15/42/2 11/29/2 16/31/2
f 14/41/1 10/28/1 13/33/1
